<?xml version="1.0" encoding="UTF-8" standalone="no"?>
<svg
   xmlns:dc="http://purl.org/dc/elements/1.1/"
   xmlns:cc="http://creativecommons.org/ns#"
   xmlns:rdf="http://www.w3.org/1999/02/22-rdf-syntax-ns#"
   xmlns:svg="http://www.w3.org/2000/svg"
   xmlns="http://www.w3.org/2000/svg"
   viewBox="0 0 800 266.66666"
   height="266.66666"
   width="800"
   xml:space="preserve"
   id="svg2"
   version="1.1"><metadata
     id="metadata8"><rdf:RDF><cc:Work
         rdf:about=""><dc:format>image/svg+xml</dc:format><dc:type
           rdf:resource="http://purl.org/dc/dcmitype/StillImage" /></cc:Work></rdf:RDF></metadata><defs
     id="defs6"><clipPath
       id="clipPath18"
       clipPathUnits="userSpaceOnUse"><path
         id="path16"
         d="M 0,200 H 600 V 0 H 0 Z" /></clipPath></defs><g
     transform="matrix(1.3333333,0,0,-1.3333333,0,266.66667)"
     id="g10"><g
       id="g12"><g
         clip-path="url(#clipPath18)"
         id="g14"><g
           transform="translate(62.2334,69.334)"
           id="g20"><path
             id="path22"
             style="fill:#2f3131;fill-opacity:1;fill-rule:nonzero;stroke:none"
             d="m 0,0 h 4.22 c 6.915,0 8.89,5.208 8.89,13.47 v 4.759 c 0,7.364 -2.335,11.854 -11.045,11.854 H 0 Z m 0,31.789 h 2.334 c 6.466,0 8.352,4.131 8.352,11.494 v 4.221 c 0,8.621 -1.527,11.943 -7.812,11.943 H 0 Z m 3.502,29.364 c 15.805,0 24.964,-3.592 24.964,-14.727 0,-8.62 -5.388,-13.2 -14.817,-14.727 v -0.18 C 24.964,30.083 31.609,25.323 31.609,15.895 31.609,1.976 19.935,-1.706 3.053,-1.706 H -23.348 V 0 h 5.837 v 59.447 h -5.837 v 1.706 z" /></g><g
           transform="translate(121.228,78.9424)"
           id="g24"><path
             id="path26"
             style="fill:#2f3131;fill-opacity:1;fill-rule:nonzero;stroke:none"
             d="M 0,0 V 8.352 H -0.628 C -4.4,8.352 -6.196,5.657 -6.196,0.18 v -1.437 c 0,-6.466 0.629,-7.363 2.335,-7.363 C -2.155,-8.62 0,-5.747 0,0 m 0,9.788 v 6.914 c 0,11.405 -0.988,14.369 -4.58,14.369 -1.616,0 -4.22,-0.719 -4.22,-3.592 0,-0.719 0.179,-1.617 0.538,-2.604 h 2.245 c 0.45,-1.168 0.719,-2.335 0.719,-4.042 0,-4.221 -3.412,-7.004 -7.902,-7.004 -5.568,0 -7.723,3.053 -7.723,7.454 0,7.543 6.555,11.045 18.768,11.045 14.098,0 18.857,-3.951 18.857,-16.973 V -2.873 c 0,-3.682 1.078,-4.67 2.605,-4.67 1.616,0 3.142,1.706 3.591,9.249 l 1.348,-0.09 c -0.45,-10.775 -3.772,-13.829 -11.495,-13.829 -7.273,0 -11.314,2.245 -12.392,6.646 -1.437,-4.311 -4.041,-6.646 -10.327,-6.646 -6.285,0 -13.29,1.886 -13.29,10.866 0,9.07 7.813,11.135 20.654,11.135 z" /></g><g
           transform="translate(168.0103,93.3105)"
           id="g28"><path
             id="path30"
             style="fill:#2f3131;fill-opacity:1;fill-rule:nonzero;stroke:none"
             d="m 0,0 v -24.066 h 6.376 v -1.617 h -28.017 v 1.617 h 4.939 v 39.511 h -4.939 v 1.617 H 0 V 8.441 c 1.617,6.376 6.646,9.518 12.033,9.518 5.298,0 9.519,-2.783 9.519,-9.608 0,-5.119 -2.694,-8.531 -7.543,-8.531 -6.017,0 -8.89,3.772 -7.005,10.148 h 3.233 c 1.796,3.681 0,4.579 -1.885,4.579 C 4.041,14.547 0,8.082 0,0" /></g><g
           transform="translate(204.376,133.2705)"
           id="g32"><path
             id="path34"
             style="fill:#2f3131;fill-opacity:1;fill-rule:nonzero;stroke:none"
             d="m 0,0 c 5.568,0 8.891,-2.784 8.891,-8.261 0,-4.76 -2.605,-8.441 -9.07,-8.441 -7.274,0 -8.98,4.579 -8.98,8.351 C -9.159,-3.951 -6.734,0 0,0 m 8.082,-22.898 v -41.128 h 5.029 v -1.617 h -26.67 v 1.617 h 4.939 v 39.511 h -5.298 v 1.617 z" /></g><g
           transform="translate(221.3457,82.8037)"
           id="g36"><path
             id="path38"
             style="fill:#2f3131;fill-opacity:1;fill-rule:nonzero;stroke:none"
             d="m 0,0 h 1.078 c 3.322,-10.955 8.8,-14.099 16.163,-14.099 6.646,0 9.16,2.425 9.16,5.837 0,4.041 -4.4,4.94 -11.224,6.825 C 7.992,0.539 0,3.322 0,13.29 c 0,9.16 6.286,15.176 15.805,15.176 3.951,0 6.645,-0.987 9.069,-2.065 1.078,-0.449 1.438,-0.718 2.515,-0.718 1.346,0 1.975,0.718 3.143,2.963 h 0.988 v -13.74 h -1.078 c -3.233,8.262 -7.812,11.675 -14.188,11.675 -5.927,0 -8.352,-2.425 -8.352,-5.208 0,-4.131 5.389,-5.119 11.315,-6.736 7.095,-1.886 14.997,-4.759 14.997,-15.356 0,-10.236 -6.646,-15.355 -16.793,-15.355 -4.31,0 -7.363,0.898 -10.775,2.604 -0.54,0.36 -1.347,0.719 -1.707,0.719 -1.168,0 -2.424,-0.809 -3.861,-3.323 l -1.078,0 z" /></g><g
           transform="translate(261.8428,108.7559)"
           id="g40"><path
             id="path42"
             style="fill:#2f3131;fill-opacity:1;fill-rule:nonzero;stroke:none"
             d="M 0,0 H -4.938 V 1.616 H 0 V 13.2 l 16.702,4.131 V 1.616 H 28.376 V 0 H 16.702 v -30.263 c 0,-5.298 0.809,-8.171 3.951,-8.171 4.311,0 7.005,3.952 7.813,10.057 l 1.527,-0.18 C 29.185,-35.561 26.222,-42.026 15.266,-42.026 6.376,-42.026 0,-39.422 0,-28.287 Z" /></g><g
           transform="translate(316.8877,78.9424)"
           id="g44"><path
             id="path46"
             style="fill:#2f3131;fill-opacity:1;fill-rule:nonzero;stroke:none"
             d="M 0,0 V 8.352 H -0.629 C -4.4,8.352 -6.196,5.657 -6.196,0.18 v -1.437 c 0,-6.466 0.629,-7.363 2.335,-7.363 C -2.155,-8.62 0,-5.747 0,0 m 0,9.788 v 6.914 c 0,11.405 -0.988,14.369 -4.58,14.369 -1.616,0 -4.22,-0.719 -4.22,-3.592 0,-0.719 0.179,-1.617 0.538,-2.604 h 2.245 c 0.45,-1.168 0.719,-2.335 0.719,-4.042 0,-4.221 -3.413,-7.004 -7.902,-7.004 -5.568,0 -7.723,3.053 -7.723,7.454 0,7.543 6.555,11.045 18.768,11.045 14.098,0 18.857,-3.951 18.857,-16.973 V -2.873 c 0,-3.682 1.078,-4.67 2.605,-4.67 1.616,0 3.142,1.706 3.591,9.249 l 1.347,-0.09 c -0.449,-10.775 -3.771,-13.829 -11.494,-13.829 -7.273,0 -11.314,2.245 -12.392,6.646 -1.437,-4.311 -4.041,-6.646 -10.327,-6.646 -6.286,0 -13.29,1.886 -13.29,10.866 0,9.07 7.813,11.135 20.654,11.135 z" /></g><g
           transform="translate(363.8496,110.3721)"
           id="g48"><path
             id="path50"
             style="fill:#2f3131;fill-opacity:1;fill-rule:nonzero;stroke:none"
             d="m 0,0 v -8.261 c 1.526,4.49 4.49,9.159 13.38,9.159 8.351,0 13.919,-4.13 13.919,-14.997 v -27.029 h 5.028 v -1.616 H 6.915 v 1.616 h 3.682 v 29.185 c 0,7.633 -1.078,8.531 -3.324,8.531 C 3.502,-3.412 0,-9.069 0,-16.344 v -24.784 h 3.861 v -1.616 h -25.503 v 1.616 h 4.94 v 39.512 h -4.94 V 0 Z" /></g><g
           transform="translate(421.498,78.9424)"
           id="g52"><path
             id="path54"
             style="fill:#2f3131;fill-opacity:1;fill-rule:nonzero;stroke:none"
             d="M 0,0 V 8.352 H -0.629 C -4.4,8.352 -6.196,5.657 -6.196,0.18 v -1.437 c 0,-6.466 0.629,-7.363 2.335,-7.363 C -2.155,-8.62 0,-5.747 0,0 m 0,9.788 v 6.914 c 0,11.405 -0.988,14.369 -4.58,14.369 -1.616,0 -4.22,-0.719 -4.22,-3.592 0,-0.719 0.179,-1.617 0.538,-2.604 h 2.245 c 0.45,-1.168 0.719,-2.335 0.719,-4.042 0,-4.221 -3.413,-7.004 -7.902,-7.004 -5.568,0 -7.723,3.053 -7.723,7.454 0,7.543 6.555,11.045 18.768,11.045 14.098,0 18.857,-3.951 18.857,-16.973 V -2.873 c 0,-3.682 1.078,-4.67 2.605,-4.67 1.616,0 3.142,1.706 3.591,9.249 l 1.347,-0.09 c -0.448,-10.775 -3.771,-13.829 -11.494,-13.829 -7.273,0 -11.314,2.245 -12.392,6.646 -1.437,-4.311 -4.041,-6.646 -10.327,-6.646 -6.286,0 -13.29,1.886 -13.29,10.866 0,9.07 7.813,11.135 20.654,11.135 z" /></g><g
           transform="translate(503.5244,84.6582)"
           id="g56"><path
             id="path58"
             style="fill:#cc9f67;fill-opacity:1;fill-rule:nonzero;stroke:none"
             d="M 0,0 C -0.632,-0.725 0.718,0.815 0,0" /></g><g
           transform="translate(514.0615,101.9702)"
           id="g60"><path
             id="path62"
             style="fill:#cc9f67;fill-opacity:1;fill-rule:nonzero;stroke:none"
             d="m 0,0 c 0.478,1.92 -1.833,3.383 -0.351,5.908 2.223,3.785 10.375,4.974 13.737,7.824 5.569,4.722 6.765,16.841 12.53,17.585 -11.226,10.336 -28.26,-2.162 -35.77,-11.167 -5.23,-6.272 -8.585,-14.344 -9.002,-22.536 -0.16,-3.114 1.224,-18.932 7.563,-14.625 4.213,2.861 3.738,6.714 5.606,9.942 C -4.375,-4.8 -0.595,-2.384 0,0" /></g><g
           transform="translate(542.2363,130.9653)"
           id="g64"><path
             id="path66"
             style="fill:#cc9f67;fill-opacity:1;fill-rule:nonzero;stroke:none"
             d="m 0,0 c -1.094,1.246 -3.131,0.877 -3.71,-0.677 -1.007,-2.699 -0.937,-5.663 -1.746,-8.58 -3.329,-12.028 -11.843,-10.201 -16.292,-17.755 -0.859,-1.46 -0.069,-3.568 -0.748,-4.95 -1.918,-3.909 -5.448,-4.891 -7.353,-6.986 -3.129,-3.437 -4.701,-7.904 -9.351,-9.751 26.262,-9.283 58.711,26.262 39.214,48.683 C 0.009,-0.012 0.005,-0.005 0,0" /></g><g
           transform="translate(520.4814,103.9712)"
           id="g68"><path
             id="path70"
             style="fill:#cc9f67;fill-opacity:1;fill-rule:nonzero;stroke:#4a2b15;stroke-width:0.75;stroke-linecap:round;stroke-linejoin:round;stroke-miterlimit:4;stroke-dasharray:none;stroke-opacity:1"
             d="M 0,0 C 0,0 0.001,-0.001 0,-0.002" /></g><g
           transform="translate(520.4814,103.9712)"
           id="g72"><path
             id="path74"
             style="fill:#cc9f67;fill-opacity:1;fill-rule:nonzero;stroke:none"
             d="M 0,0 C -0.056,0.175 0.017,-0.051 0,0" /></g><g
           transform="translate(503.4687,68.5566)"
           id="g76"><path
             id="path78"
             style="fill:#deb079;fill-opacity:1;fill-rule:nonzero;stroke:none"
             d="M 0,0 C 0.54,-0.974 -0.606,1.104 0,0" /></g><g
           transform="translate(488.7549,86.8604)"
           id="g80"><path
             id="path82"
             style="fill:#deb079;fill-opacity:1;fill-rule:nonzero;stroke:none"
             d="m 0,0 c -1.903,1.277 -4.407,-0.664 -6.574,1.945 -3.25,3.914 -1.333,13.267 -3.114,18.054 -2.953,7.927 -15.688,14.006 -14.225,20.582 -15.688,-8.16 -8.78,-31.647 -1.927,-43.38 4.775,-8.171 12.249,-15.007 21.012,-18.689 3.329,-1.401 21.112,-6.125 18.917,2.478 -1.458,5.719 -5.844,6.72 -8.626,10.027 C 3.509,-6.659 2.364,-1.587 0,0" /></g><g
           transform="translate(468.2617,128.9888)"
           id="g84"><path
             id="path86"
             style="fill:#deb079;fill-opacity:1;fill-rule:nonzero;stroke:none"
             d="m 0,0 c -1.789,-0.7 -2.189,-3.066 -0.725,-4.31 2.545,-2.161 5.801,-3.254 8.661,-5.284 11.795,-8.366 6.451,-16.925 12.931,-24.75 1.251,-1.511 3.859,-1.482 5.098,-2.766 3.503,-3.629 3.182,-7.864 4.715,-10.765 2.514,-4.761 6.76,-8.236 6.94,-14.032 C 58.084,-36.947 32.139,12.419 0.021,0.009 0.016,0.005 0.007,0.002 0,0" /></g><g
           transform="translate(489.1055,94.6455)"
           id="g88"><path
             id="path90"
             style="fill:#deb079;fill-opacity:1;fill-rule:nonzero;stroke:#4a2b15;stroke-width:0.75;stroke-linecap:round;stroke-linejoin:round;stroke-miterlimit:4;stroke-dasharray:none;stroke-opacity:1"
             d="M 0,0 0.001,-0.001" /></g><g
           transform="translate(489.1055,94.6455)"
           id="g92"><path
             id="path94"
             style="fill:#deb079;fill-opacity:1;fill-rule:nonzero;stroke:none"
             d="M 0,0 C -0.212,0.007 0.061,-0.004 0,0" /></g></g></g></g></svg>